<svg width="70" height="70" viewBox="0 0 70 70" fill="none" xmlns="http://www.w3.org/2000/svg">
<g filter="url(#filter0_d_3323_188471)">
<rect x="5" y="3" width="60" height="60" rx="30" fill="white"/>
<path fill-rule="evenodd" clip-rule="evenodd" d="M41.5825 31.5925H30.4125L35.2925 26.7125C35.6825 26.3225 35.6825 25.6825 35.2925 25.2925C35.1057 25.1052 34.852 25 34.5875 25C34.323 25 34.0693 25.1052 33.8825 25.2925L27.2925 31.8825C26.9025 32.2725 26.9025 32.9025 27.2925 33.2925L33.8825 39.8825C34.2725 40.2725 34.9025 40.2725 35.2925 39.8825C35.6825 39.4925 35.6825 38.8625 35.2925 38.4725L30.4125 33.5925H41.5825C42.1325 33.5925 42.5825 33.1425 42.5825 32.5925C42.5825 32.0425 42.1325 31.5925 41.5825 31.5925Z" fill="#C3CAD9"/>
</g>
<defs>
<filter id="filter0_d_3323_188471" x="0" y="0" width="70" height="70" filterUnits="userSpaceOnUse" color-interpolation-filters="sRGB">
<feFlood flood-opacity="0" result="BackgroundImageFix"/>
<feColorMatrix in="SourceAlpha" type="matrix" values="0 0 0 0 0 0 0 0 0 0 0 0 0 0 0 0 0 0 127 0" result="hardAlpha"/>
<feOffset dy="2"/>
<feGaussianBlur stdDeviation="2.5"/>
<feColorMatrix type="matrix" values="0 0 0 0 0.14902 0 0 0 0 0.2 0 0 0 0 0.301961 0 0 0 0.03 0"/>
<feBlend mode="normal" in2="BackgroundImageFix" result="effect1_dropShadow_3323_188471"/>
<feBlend mode="normal" in="SourceGraphic" in2="effect1_dropShadow_3323_188471" result="shape"/>
</filter>
</defs>
</svg>
