<svg width="70" height="70" viewBox="0 0 70 70" fill="none" xmlns="http://www.w3.org/2000/svg">
<g filter="url(#filter0_d_3323_188472)">
<rect x="5" y="3" width="60" height="60" rx="30" fill="white"/>
<path fill-rule="evenodd" clip-rule="evenodd" d="M28 33.5925H39.17L34.29 38.4725C33.9 38.8625 33.9 39.5025 34.29 39.8925C34.68 40.2825 35.31 40.2825 35.7 39.8925L42.29 33.3025C42.68 32.9125 42.68 32.2825 42.29 31.8925L35.71 25.2925C35.5232 25.1052 35.2695 25 35.005 25C34.7405 25 34.4868 25.1052 34.3 25.2925C33.91 25.6825 33.91 26.3125 34.3 26.7025L39.17 31.5925H28C27.45 31.5925 27 32.0425 27 32.5925C27 33.1425 27.45 33.5925 28 33.5925Z" fill="#C3CAD9"/>
</g>
<defs>
<filter id="filter0_d_3323_188472" x="0" y="0" width="70" height="70" filterUnits="userSpaceOnUse" color-interpolation-filters="sRGB">
<feFlood flood-opacity="0" result="BackgroundImageFix"/>
<feColorMatrix in="SourceAlpha" type="matrix" values="0 0 0 0 0 0 0 0 0 0 0 0 0 0 0 0 0 0 127 0" result="hardAlpha"/>
<feOffset dy="2"/>
<feGaussianBlur stdDeviation="2.5"/>
<feColorMatrix type="matrix" values="0 0 0 0 0.14902 0 0 0 0 0.2 0 0 0 0 0.301961 0 0 0 0.03 0"/>
<feBlend mode="normal" in2="BackgroundImageFix" result="effect1_dropShadow_3323_188472"/>
<feBlend mode="normal" in="SourceGraphic" in2="effect1_dropShadow_3323_188472" result="shape"/>
</filter>
</defs>
</svg>
